<svg width="173" height="110" viewBox="0 0 173 110" fill="none" xmlns="http://www.w3.org/2000/svg">
<path d="M6.31165 97.0605C6.18725 97.0905 5.95455 97.0815 5.61335 97.0325C5.28725 97.0465 5.10155 96.9595 5.05625 96.7725C5.04105 96.7105 5.05705 96.6405 5.10415 96.5635C5.15115 96.4865 5.17475 96.4475 5.17475 96.4475C5.57985 96.2175 5.75125 96.1095 5.68905 96.1255C5.70415 96.1875 5.91425 96.1035 6.31935 95.8735C7.28585 95.2425 8.05905 94.4945 8.63895 93.6295C9.26595 92.6865 9.73835 91.6495 10.0562 90.5185C11.7996 84.9575 13.4035 79.3635 14.8679 73.7385C16.3172 68.0515 17.7741 62.3945 19.2386 56.7695C19.6673 55.2825 20.0574 53.7715 20.4088 52.2365C20.7603 50.7025 21.1117 49.1675 21.4632 47.6335C21.5926 46.8115 21.722 45.9895 21.8515 45.1675C22.0432 44.3305 22.2737 43.5175 22.5427 42.7275C22.8285 41.7365 23.4244 40.8005 24.3304 39.9215C25.2833 38.9655 26.2197 38.2115 27.1391 37.6585L24.9003 38.2025C23.6565 38.5045 21.969 39.0135 19.8378 39.7295C17.7537 40.3685 15.5754 41.1615 13.3029 42.1095C11.0305 43.0565 9.05215 44.1305 7.36795 45.3305C5.74595 46.5155 4.74415 47.8125 4.36245 49.2225C4.01275 50.4935 3.96635 51.6575 4.22345 52.7145C4.52585 53.9585 5.00985 54.7295 5.67535 55.0285C6.34095 55.3285 6.68875 55.5395 6.71905 55.6645C6.74925 55.7885 6.68625 55.9355 6.52995 56.1055C6.37355 56.2755 6.23325 56.3755 6.10885 56.4055C5.73575 56.4965 5.17855 56.2365 4.43745 55.6265C3.69635 55.0165 2.97115 54.3365 2.26195 53.5865C1.59985 52.7595 1.16875 52.2055 0.968851 51.9245C0.615951 51.2865 0.356351 50.6245 0.189951 49.9405C-0.218249 48.2615 0.0314497 46.8505 0.93915 45.7075C1.89395 44.4875 3.16545 43.4875 4.75385 42.7055C6.34215 41.9245 7.96835 41.2985 9.63235 40.8275C11.3433 40.2805 12.7586 39.8705 13.878 39.5985C16.9874 38.8425 20.0816 38.0235 23.1608 37.1435C26.2248 36.2005 29.2805 35.3595 32.3278 34.6185C35.2505 33.9075 38.1642 33.4295 41.0685 33.1845C44.0199 32.8625 46.7896 33.0125 49.3778 33.6345C51.9661 34.2565 54.2089 35.4895 56.1063 37.3335C58.0658 39.1625 59.4765 41.8485 60.3384 45.3935C61.1246 48.6275 61.3118 52.1055 60.8997 55.8285C60.5345 59.4735 59.7753 62.8525 58.6221 65.9655C53.8022 79.1905 44.5516 87.4665 30.8701 90.7925C28.7557 91.3065 26.5263 91.6185 24.1817 91.7275C21.8992 91.8215 19.6732 91.6055 17.5034 91.0785C17.0076 90.9365 16.4958 90.8625 15.9681 90.8595C15.4874 90.7785 14.9983 90.7985 14.5007 90.9195C13.4436 91.1765 12.4695 91.7755 11.5786 92.7175C10.6726 93.5965 9.79775 94.4675 8.95395 95.3315C8.12525 96.2575 7.24445 96.8335 6.31165 97.0605ZM29.4332 89.7595C34.0973 88.6255 38.2312 86.6645 41.835 83.8785C45.4387 81.0925 48.371 77.7115 50.632 73.7375C52.8778 69.7005 54.3573 65.3555 55.0704 60.7035C55.3951 58.5165 55.5415 56.2745 55.5098 53.9775C55.5402 51.6645 55.2983 49.4515 54.7842 47.3365C53.6048 42.4865 51.2051 39.1175 47.585 37.2315C44.012 35.2685 39.8312 34.8685 35.0427 36.0325C33.8612 36.3205 32.6477 36.7465 31.4023 37.3135C30.219 37.8645 29.3365 38.7045 28.7549 39.8335C28.1884 41.0255 27.6756 42.3025 27.2166 43.6655C26.8199 45.0135 26.4154 46.3305 26.0035 47.6165C25.178 50.4515 24.4374 53.3655 23.7816 56.3565C23.1729 59.2715 22.5257 62.1615 21.8396 65.0295C20.74 69.4455 19.6791 73.8865 18.6568 78.3505C18.4331 79.3265 18.186 80.3415 17.9153 81.3955C17.6916 82.3725 17.4679 83.3485 17.2443 84.3245C17.1955 84.6665 17.1544 85.0385 17.1206 85.4415C17.0719 85.7825 17.1005 86.1715 17.2063 86.6065C17.4029 87.4145 17.818 88.0385 18.4516 88.4775C19.0852 88.9165 19.7423 89.3165 20.4228 89.6775C21.8162 90.2605 23.3279 90.5195 24.9583 90.4515C26.5735 90.3225 28.065 90.0915 29.4332 89.7595ZM79.2662 77.7415C78.6441 77.8925 78.0862 77.8965 77.5901 77.7535C77.0941 77.6105 76.7631 77.1975 76.5971 76.5135C76.3851 75.6425 76.3611 74.5945 76.5241 73.3695C76.6871 72.1445 76.9201 70.9355 77.2221 69.7415C77.5101 68.4865 77.7882 67.4635 78.0572 66.6735C76.4402 69.5035 74.6992 72.2325 72.8352 74.8595C71.8961 76.1415 70.8171 77.3915 69.5981 78.6105C68.3791 79.8285 66.9616 80.6345 65.3447 81.0275C64.7228 81.1785 64.2421 81.0985 63.9026 80.7855C63.548 80.4105 63.3027 79.9435 63.1666 79.3835C63.091 79.0725 63.0693 78.8475 63.1012 78.7075C62.8224 76.2065 62.9873 73.4995 63.596 70.5855C64.2048 67.6705 65.1311 64.8435 66.3751 62.1045C67.6191 59.3645 69.0002 57.0535 70.5182 55.1695C72.2392 53.0385 74.3751 51.6625 76.9241 51.0425L87.6521 48.4345C87.9631 48.3585 88.1481 48.4455 88.2091 48.6945C88.3301 49.1915 88.1101 49.5085 87.5511 49.6445C86.9291 49.7955 86.4052 50.3515 85.9801 51.3105C85.5401 52.2085 85.2242 52.9435 85.0341 53.5165C84.7652 54.3065 84.3612 55.6235 83.8212 57.4675C83.2822 59.3105 82.7491 61.3175 82.2221 63.4875C81.7431 65.5795 81.3581 67.5175 81.0671 69.3005C80.7761 71.0845 80.7211 72.3485 80.9031 73.0955C81.1151 73.9655 81.6561 74.2955 82.5261 74.0835C83.4591 73.8565 84.4111 73.1645 85.3801 72.0065C86.3502 70.8485 87.2752 69.5045 88.1542 67.9735C89.0802 66.3645 89.8901 64.8175 90.5821 63.3315C91.3221 61.7685 91.9121 60.5385 92.3521 59.6415C92.8161 59.9235 92.9141 60.4595 92.6451 61.2495C92.4231 61.9625 92.2021 62.5425 91.9821 62.9915C91.1311 64.9115 90.1091 66.9375 88.9151 69.0725C87.7071 71.1445 86.2822 73.0055 84.6422 74.6565C83.0481 76.2295 81.2561 77.2575 79.2662 77.7415ZM68.3981 76.9265C69.1441 76.7445 70.0421 75.9665 71.0911 74.5915C72.1871 73.1395 73.3151 71.4165 74.4771 69.4215C75.6242 67.3645 76.6621 65.2675 77.5911 63.1315C78.5061 60.9335 79.2171 58.9815 79.7252 57.2775C80.2792 55.4965 80.4591 54.2015 80.2621 53.3925C80.0961 52.7085 79.7652 52.2955 79.2691 52.1525C78.8352 51.9945 78.3072 51.9905 77.6861 52.1425C76.6911 52.3845 75.6931 53.0215 74.6931 54.0555C73.7401 55.0115 73.0041 55.9145 72.4871 56.7655C71.9071 57.6305 71.2701 58.9385 70.5751 60.6875C69.9281 62.3605 69.3191 64.1875 68.7471 66.1715C68.1751 68.1545 67.7441 70.0375 67.4532 71.8205C67.1622 73.6035 67.1377 74.9935 67.3797 75.9885C67.5611 76.7345 67.9001 77.0465 68.3981 76.9265ZM94.8321 75.1425C94.5831 75.2025 94.5152 74.9225 94.6282 74.3025C94.8022 73.6675 94.9311 72.9775 95.0131 72.2335C95.1581 71.4735 95.2881 70.6515 95.4021 69.7675C95.6611 68.1235 95.9371 66.2785 96.2291 64.2315C96.5221 62.1845 96.7991 60.2065 97.0592 58.2995C97.3052 56.3295 97.5251 54.6625 97.7201 53.2975C97.9631 51.8555 98.1321 50.9255 98.2271 50.5065C97.5842 51.6515 96.8141 53.0895 95.9181 54.8225C95.0691 56.4775 94.2741 58.0875 93.5351 59.6505C92.7952 61.2135 92.2361 62.4355 91.8581 63.3185C91.7321 63.6125 91.6071 63.7745 91.4821 63.8045C91.3581 63.8345 91.2581 63.6945 91.1822 63.3835C91.0611 62.8865 91.1031 62.3815 91.3082 61.8715C92.1272 60.0915 93.0252 58.0945 94.0022 55.8815C95.0402 53.6525 95.9621 51.6175 96.7651 49.7755C97.5541 47.8715 98.0431 46.6325 98.2331 46.0595C98.8871 45.7685 99.8361 45.3405 101.082 44.7735C102.39 44.1925 103.239 43.6235 103.631 43.0675C103.772 42.8355 103.936 42.6965 104.122 42.6515C104.247 42.6215 104.339 42.7305 104.4 42.9795C104.507 43.1505 104.498 43.3835 104.372 43.6775C104.105 44.2035 103.701 45.3885 103.162 47.2325C102.669 48.9985 102.128 50.9745 101.54 53.1595C101.014 55.3285 100.504 57.2965 100.012 59.0635C100.516 57.8865 101.09 56.7265 101.734 55.5815C102.378 54.4375 102.998 53.3315 103.595 52.2645C104.159 51.3365 104.959 50.1545 105.993 48.7175C107.026 47.2805 108.145 45.9215 109.348 44.6415C110.552 43.3605 111.667 42.5295 112.694 42.1485C112.928 42.0255 113.138 41.9415 113.325 41.8965C113.573 41.8355 113.76 41.7905 113.884 41.7595C115.252 41.4275 116.057 41.7585 116.299 42.7535C116.481 43.4995 116.318 44.5935 115.812 46.0335C115.543 46.8235 115.139 48.1405 114.599 49.9835C114.107 51.7505 113.621 53.6795 113.142 55.7725C112.71 57.7875 112.348 59.6865 112.057 61.4695C111.813 63.1755 111.782 64.4015 111.963 65.1475C112.175 66.0185 112.716 66.3485 113.587 66.1365C114.644 65.8795 115.666 65.0705 116.653 63.7115C117.702 62.3365 118.776 60.6595 119.875 58.6795C120.959 56.6375 122.021 54.5025 123.06 52.2735C123.215 52.3675 123.33 52.5705 123.405 52.8815C123.511 53.3165 123.461 53.7895 123.256 54.3005C123.098 54.7345 122.933 55.1365 122.76 55.5085C122.334 56.4675 121.744 57.6985 120.989 59.1995C120.282 60.6225 119.543 62.0535 118.773 63.4925C117.988 64.8685 117.243 66.0045 116.539 66.9005C116.023 67.4875 115.328 68.1495 114.454 68.8895C113.58 69.6285 112.645 70.1195 111.65 70.3615C110.531 70.6335 109.686 70.5425 109.114 70.0885C108.528 69.5725 108.128 68.8795 107.917 68.0085C107.675 67.0135 107.604 65.9115 107.705 64.7015C107.806 63.4915 107.953 62.3355 108.147 61.2345C108.387 60.0565 108.571 59.1885 108.699 58.6305C109.289 56.1815 109.817 53.8805 110.281 51.7255C110.745 49.5705 111.065 48.0435 111.242 47.1445C111.337 46.7265 111.355 46.3925 111.295 46.1435C111.189 45.7085 110.839 45.7605 110.246 46.3005C109.652 46.8395 108.949 47.6035 108.135 48.5915C107.384 49.5645 106.695 50.5225 106.068 51.4655C105.426 52.3465 105.011 52.9405 104.822 53.2505C103.111 56.2355 101.748 59.4315 100.732 62.8405C99.7642 66.1715 99.0672 69.5355 98.6412 72.9315C97.8482 73.1905 97.0921 73.6045 96.3751 74.1745C95.6571 74.7445 95.1431 75.0665 94.8321 75.1425ZM135.461 26.0415C134.59 26.2535 133.9 26.1245 133.391 25.6555C133.067 25.4045 132.844 25.0305 132.723 24.5335C132.481 23.5385 132.751 22.6165 133.533 21.7675C134.126 21.2285 134.703 20.8905 135.262 20.7545C136.195 20.5275 136.916 20.6485 137.425 21.1175C137.75 21.3685 137.972 21.7425 138.093 22.2395C138.335 23.2345 138.034 24.1645 137.19 25.0285C136.721 25.5375 136.145 25.8755 135.461 26.0415ZM127.962 65.9015C127.34 66.0525 126.781 66.0565 126.285 65.9135C125.852 65.7555 125.552 65.3345 125.385 64.6505C125.174 63.7805 125.142 62.7015 125.29 61.4135C125.5 60.1115 125.741 58.8015 126.014 57.4835C126.348 56.1505 126.58 55.0735 126.71 54.2515C126.934 53.2745 127.19 52.0275 127.479 50.5075C127.816 48.9115 128.112 47.4225 128.37 46.0425C128.674 44.5855 128.89 43.5785 129.018 43.0205C128.374 44.1645 127.604 45.6035 126.708 47.3365C125.859 48.9915 125.065 50.6005 124.325 52.1635C123.586 53.7265 123.027 54.9495 122.648 55.8315C122.522 56.1255 122.397 56.2885 122.273 56.3185C122.148 56.3485 122.048 56.2085 121.973 55.8975C121.852 55.3995 121.894 54.8955 122.099 54.3845C122.918 52.6045 123.815 50.6085 124.792 48.3945C125.831 46.1665 126.752 44.1305 127.556 42.2885C128.344 40.3845 128.833 39.1465 129.023 38.5735C129.677 38.2825 130.627 37.8535 131.872 37.2875C133.18 36.7065 134.03 36.1375 134.421 35.5815C134.562 35.3495 134.726 35.2105 134.913 35.1655C135.037 35.1345 135.13 35.2445 135.19 35.4925C135.298 35.6645 135.288 35.8975 135.162 36.1915C134.895 36.7175 134.499 37.9335 133.975 39.8395C133.45 41.7445 132.909 43.8525 132.35 46.1615C131.839 48.3935 131.345 50.4245 130.867 52.2525C130.405 54.1435 130.052 55.9415 129.808 57.6475C129.564 59.3535 129.525 60.5485 129.692 61.2325C129.903 62.1035 130.445 62.4325 131.315 62.2215C132.124 62.0245 133.029 61.2775 134.031 59.9805C135.095 58.6675 136.113 57.1685 137.087 55.4825C138.045 53.7345 138.878 52.1495 139.586 50.7255C139.806 50.2765 140.073 49.7505 140.387 49.1475C140.749 48.4665 140.977 48.0495 141.071 47.8945C141.225 47.9885 141.34 48.1915 141.416 48.5025C141.46 48.9525 141.41 49.4255 141.267 49.9215C141.109 50.3555 140.944 50.7575 140.77 51.1295C139.858 53.0635 138.835 55.0905 137.704 57.2095C136.558 59.2665 135.195 61.1125 133.617 62.7485C132.023 64.3215 130.138 65.3725 127.962 65.9015ZM146.366 15.8815C146.053 16.2205 145.757 16.4905 145.476 16.6905C145.257 16.8755 145.148 16.9675 145.148 16.9675L145.153 16.1765C145.17 15.9745 145.163 15.8115 145.133 15.6875C145.165 15.5475 145.337 15.3085 145.65 14.9685C146.496 13.8405 147.148 12.5955 147.607 11.2325C148.128 9.85447 148.354 8.48248 148.285 7.11548C148.213 6.27648 147.884 5.59948 147.297 5.08348C146.711 4.56748 145.998 4.34548 145.159 4.41748L145.283 3.30048C145.564 3.10148 145.954 2.80848 146.453 2.42348C146.937 1.97648 147.281 1.62948 147.484 1.38248C147.688 1.13548 147.883 0.857478 148.072 0.548478C148.245 0.176478 148.432 -0.000519376 148.634 0.0164806C149.985 -0.114519 150.835 0.53547 151.183 1.96547C151.243 2.21447 151.272 2.47048 151.271 2.73448C151.316 2.92048 151.345 3.17748 151.359 3.50348C151.406 5.86248 150.933 8.11847 149.941 10.2695C148.997 12.3435 147.805 14.2145 146.366 15.8815ZM164.296 58.3515C163.177 58.6235 161.958 58.7555 160.638 58.7465C159.319 58.7385 158.079 58.5125 156.917 58.0705C155.803 57.5515 154.939 56.7075 154.326 55.5395C154.218 55.3675 154.119 55.0955 154.028 54.7225C153.817 53.8515 153.769 52.8425 153.885 51.6945C154.063 50.5315 154.41 49.6565 154.926 49.0705C155.145 48.8855 155.332 48.8405 155.486 48.9345C155.703 49.0135 155.764 49.1305 155.67 49.2845C155.653 49.4865 155.621 49.7575 155.572 50.0995C155.508 50.3785 155.483 50.6805 155.496 51.0065C155.703 52.6685 156.392 54.0165 157.565 55.0485C158.06 55.4545 158.608 55.8155 159.212 56.1295C159.877 56.4295 160.496 56.6735 161.07 56.8635C161.565 57.0065 162.139 57.0645 162.791 57.0375C163.428 56.9485 164.058 56.8285 164.68 56.6775C165.675 56.4355 166.609 56.0765 167.481 55.6015C168.353 55.1255 168.939 54.5555 169.238 53.8895C169.805 52.6975 169.937 51.4805 169.634 50.2365C169.408 49.3035 168.917 48.3695 168.162 47.4325C167.408 46.4965 166.358 45.5665 165.014 44.6415C164.148 44.0615 163.299 43.4125 162.465 42.6925C161.632 41.9735 161.001 41.1385 160.572 40.1895C160.464 40.0175 160.357 39.8465 160.249 39.6745C160.204 39.4885 160.159 39.3015 160.113 39.1155C159.592 40.4935 159.025 41.8165 158.411 43.0855C157.845 44.2775 157.341 45.3215 156.901 46.2195C156.743 46.6525 156.57 46.8925 156.384 46.9375C156.259 46.9675 156.167 46.8585 156.107 46.6095C155.97 46.0505 156.076 45.3985 156.422 44.6565C156.783 43.9755 157.177 43.1555 157.602 42.1955C158.012 41.1735 158.343 40.3685 158.596 39.7805C159.275 37.9685 159.757 36.5675 160.043 35.5755C160.376 34.5065 160.763 33.5235 161.203 32.6255C161.691 31.6515 162.371 30.7945 163.245 30.0545C164.182 29.3005 165.209 28.7865 166.329 28.5145C167.635 28.1975 168.869 28.1275 170.032 28.3055C171.242 28.4065 172.075 29.2575 172.53 30.8595C172.712 31.6065 172.745 32.4215 172.631 33.3055C172.564 34.1115 172.458 34.8955 172.313 35.6545C172.217 36.0735 172.006 36.4215 171.678 36.6985C171.397 36.8985 171.226 36.8745 171.166 36.6255C171.105 36.3765 171.069 36.0895 171.055 35.7635C171.042 35.4375 171.005 35.1495 170.944 34.9005C170.687 33.8435 170.274 32.9565 169.704 32.2385C169.182 31.4435 168.564 30.9355 167.851 30.7135C167.124 30.4285 166.418 30.3705 165.734 30.5365C164.739 30.7785 163.873 31.4165 163.137 32.4525C162.385 33.4255 162.161 34.5335 162.463 35.7775C162.494 35.9015 162.531 36.0575 162.577 36.2435C162.622 36.4305 162.691 36.5785 162.783 36.6875C163.274 37.6225 164.292 38.5605 165.839 39.5015C167.385 40.4425 168.613 41.2965 169.524 42.0635C171.099 43.3925 172.09 44.8975 172.499 46.5765C172.907 48.2555 172.787 49.9305 172.14 51.6035C171.54 53.1985 170.53 54.5965 169.109 55.7975C167.766 57.0465 166.162 57.8975 164.296 58.3515Z" fill="white"/>
<path d="M6.61914 108.911C142.619 60.1115 166.952 86.2455 167.619 89.9115" stroke="white"/>
</svg>
